<svg width="80" height="46" viewBox="0 0 80 46" fill="none" xmlns="http://www.w3.org/2000/svg">
<rect x="0.387628" y="19.7991" width="75" height="27" rx="4.5" transform="rotate(-15 0.387628 19.7991)" fill="#F4F4F4" stroke="black"/>
<path d="M16.4514 26.624L16.7749 27.8314L15.5675 28.1549L15.244 26.9475L16.4514 26.624ZM13.1527 28.802L14.3601 28.4785L14.6836 29.6859L13.4762 30.0094L13.1527 28.802ZM19.1897 27.1844L19.5133 28.3918L18.3059 28.7153L17.9823 27.5079L19.1897 27.1844ZM14.6836 29.6859L15.891 29.3623L16.2146 30.5698L15.0072 30.8933L14.6836 29.6859ZM18.3059 28.7153L18.6294 29.9227L17.422 30.2462L17.0985 29.0388L18.3059 28.7153ZM13.7998 31.2168L14.1233 32.4242L12.9159 32.7477L12.5924 31.5403L13.7998 31.2168ZM16.2146 30.5698L17.422 30.2462L17.7455 31.4536L16.5381 31.7772L16.2146 30.5698ZM19.8368 29.5992L21.0442 29.2757L21.3677 30.4831L20.1603 30.8066L19.8368 29.5992ZM15.6542 33.3081L15.3307 32.1007L16.5381 31.7772L16.8616 32.9846L15.6542 33.3081ZM17.7455 31.4536L18.9529 31.1301L19.2764 32.3375L18.069 32.661L17.7455 31.4536ZM14.7703 34.839L14.4468 33.6316L15.6542 33.3081L15.9777 34.5155L14.7703 34.839ZM19.6 33.5449L19.2764 32.3375L20.4838 32.014L20.8074 33.2214L19.6 33.5449ZM17.5087 35.3994L17.1851 34.192L18.3926 33.8684L18.7161 35.0759L17.5087 35.3994ZM36.0068 17.5019L33.5919 18.1489L34.5625 21.7711L36.9773 21.1241L37.3009 22.3315L22.812 26.2138L22.4884 25.0064L24.9033 24.3593L23.9327 20.7371L21.5179 21.3842L21.1943 20.1768L35.6832 16.2945L36.0068 17.5019ZM31.1771 18.796L26.3475 20.0901L27.3181 23.7123L32.1477 22.4182L31.1771 18.796ZM25.0766 34.6656L23.7825 29.836L29.8196 28.2184L29.4961 27.011L22.2516 28.9521L21.9281 27.7447L38.8318 23.2154L39.1553 24.4228L31.9109 26.3639L32.2344 27.5713L38.2714 25.9537L39.5655 30.7834L38.3581 31.1069L38.6816 32.3143L26.6076 35.5495L26.284 34.3421L25.0766 34.6656ZM26.5209 30.3964L27.4914 34.0186L37.1507 31.4304L36.1801 27.8082L26.5209 30.3964ZM51.2294 21.1876L48.8146 21.8346L48.491 20.6272L47.2836 20.9507L46.9601 19.7433L44.5453 20.3904L44.8688 21.5978L43.6614 21.9213L43.9849 23.1287L41.5701 23.7758L41.2466 22.5683L42.454 22.2448L42.1305 21.0374L43.3379 20.7139L43.0144 19.5065L44.2218 19.183L43.2512 15.5607L39.629 16.5313L39.3055 15.3239L48.9647 12.7357L49.2882 13.9431L45.666 14.9137L46.6366 18.5359L47.844 18.2124L48.1675 19.4198L49.3749 19.0963L49.6985 20.3037L50.9059 19.9802L51.2294 21.1876ZM57.2664 19.5699L54.8516 20.217L53.881 16.5948L50.2588 17.5653L49.9353 16.3579L53.5575 15.3874L52.5869 11.7651L55.0018 11.1181L57.2664 19.5699ZM43.7481 27.0744L55.8222 23.8392L55.4987 22.6318L43.4246 25.867L43.1011 24.6596L57.5899 20.7773L58.5605 24.3996L46.4864 27.6348L46.81 28.8422L58.884 25.607L59.2076 26.8144L45.9261 30.3731L45.6026 29.1657L44.3952 29.4893L43.7481 27.0744ZM64.7477 13.6831L65.0712 14.8905L63.8638 15.214L63.5403 14.0066L64.7477 13.6831ZM61.449 15.861L62.6564 15.5375L62.9799 16.7449L61.7725 17.0684L61.449 15.861ZM67.486 14.2434L67.8096 15.4508L66.6022 15.7743L66.2786 14.5669L67.486 14.2434ZM62.9799 16.7449L64.1873 16.4214L64.5109 17.6288L63.3035 17.9523L62.9799 16.7449ZM66.6022 15.7743L66.9257 16.9818L65.7183 17.3053L65.3947 16.0979L66.6022 15.7743ZM62.096 18.2758L62.4196 19.4833L61.2122 19.8068L60.8886 18.5994L62.096 18.2758ZM64.5109 17.6288L65.7183 17.3053L66.0418 18.5127L64.8344 18.8362L64.5109 17.6288ZM68.1331 16.6582L69.3405 16.3347L69.664 17.5421L68.4566 17.8656L68.1331 16.6582ZM63.9505 20.3671L63.627 19.1597L64.8344 18.8362L65.1579 20.0436L63.9505 20.3671ZM66.0418 18.5127L67.2492 18.1892L67.5727 19.3966L66.3653 19.7201L66.0418 18.5127ZM63.0666 21.8981L62.7431 20.6907L63.9505 20.3671L64.274 21.5745L63.0666 21.8981ZM67.8962 20.604L67.5727 19.3966L68.7801 19.073L69.1037 20.2804L67.8962 20.604ZM65.805 22.4584L65.4814 21.251L66.6888 20.9275L67.0124 22.1349L65.805 22.4584Z" fill="black"/>
</svg>
